<mxfile host="app.diagrams.net" agent="Mozilla/5.0 (Macintosh; Intel Mac OS X 10_15_7) AppleWebKit/605.1.15 (KHTML, like Gecko) Version/17.6 Safari/605.1.15" version="26.0.9">
  <diagram name="Page-1" id="-meJAtFZCEqINvJFQnJL">
    <mxGraphModel dx="1434" dy="827" grid="1" gridSize="10" guides="1" tooltips="1" connect="1" arrows="1" fold="1" page="1" pageScale="1" pageWidth="850" pageHeight="1100" math="0" shadow="0">
      <root>
        <mxCell id="0" />
        <mxCell id="1" parent="0" />
        <mxCell id="08SMgyBRt8ykKjq59Ych-1" value="Supervisor" style="ellipse;whiteSpace=wrap;html=1;aspect=fixed;" vertex="1" parent="1">
          <mxGeometry x="385" y="110" width="90" height="90" as="geometry" />
        </mxCell>
        <mxCell id="08SMgyBRt8ykKjq59Ych-44" style="edgeStyle=orthogonalEdgeStyle;rounded=0;orthogonalLoop=1;jettySize=auto;html=1;exitX=0.5;exitY=1;exitDx=0;exitDy=0;entryX=0.5;entryY=0;entryDx=0;entryDy=0;" edge="1" parent="1" source="08SMgyBRt8ykKjq59Ych-5" target="08SMgyBRt8ykKjq59Ych-22">
          <mxGeometry relative="1" as="geometry" />
        </mxCell>
        <mxCell id="08SMgyBRt8ykKjq59Ych-5" value="reasoning" style="ellipse;whiteSpace=wrap;html=1;aspect=fixed;" vertex="1" parent="1">
          <mxGeometry x="110" y="320" width="80" height="80" as="geometry" />
        </mxCell>
        <mxCell id="08SMgyBRt8ykKjq59Ych-45" style="edgeStyle=orthogonalEdgeStyle;rounded=0;orthogonalLoop=1;jettySize=auto;html=1;exitX=0.5;exitY=1;exitDx=0;exitDy=0;" edge="1" parent="1" source="08SMgyBRt8ykKjq59Ych-6">
          <mxGeometry relative="1" as="geometry">
            <mxPoint x="240" y="440" as="targetPoint" />
          </mxGeometry>
        </mxCell>
        <mxCell id="08SMgyBRt8ykKjq59Ych-6" value="researcher" style="ellipse;whiteSpace=wrap;html=1;aspect=fixed;" vertex="1" parent="1">
          <mxGeometry x="290" y="320" width="80" height="80" as="geometry" />
        </mxCell>
        <mxCell id="08SMgyBRt8ykKjq59Ych-14" style="edgeStyle=orthogonalEdgeStyle;rounded=0;orthogonalLoop=1;jettySize=auto;html=1;exitX=0.5;exitY=1;exitDx=0;exitDy=0;" edge="1" parent="1" source="08SMgyBRt8ykKjq59Ych-7">
          <mxGeometry relative="1" as="geometry">
            <mxPoint x="520" y="430" as="targetPoint" />
            <mxPoint x="520" y="420" as="sourcePoint" />
          </mxGeometry>
        </mxCell>
        <mxCell id="08SMgyBRt8ykKjq59Ych-7" value="stock analysis" style="ellipse;whiteSpace=wrap;html=1;aspect=fixed;" vertex="1" parent="1">
          <mxGeometry x="480" y="320" width="80" height="80" as="geometry" />
        </mxCell>
        <mxCell id="08SMgyBRt8ykKjq59Ych-56" style="edgeStyle=orthogonalEdgeStyle;rounded=0;orthogonalLoop=1;jettySize=auto;html=1;exitX=0.5;exitY=1;exitDx=0;exitDy=0;entryX=0.5;entryY=0;entryDx=0;entryDy=0;" edge="1" parent="1" source="08SMgyBRt8ykKjq59Ych-8" target="08SMgyBRt8ykKjq59Ych-57">
          <mxGeometry relative="1" as="geometry">
            <mxPoint x="720" y="420" as="targetPoint" />
            <Array as="points" />
          </mxGeometry>
        </mxCell>
        <mxCell id="08SMgyBRt8ykKjq59Ych-8" value="weather + recent news" style="ellipse;whiteSpace=wrap;html=1;aspect=fixed;" vertex="1" parent="1">
          <mxGeometry x="680" y="320" width="80" height="80" as="geometry" />
        </mxCell>
        <mxCell id="08SMgyBRt8ykKjq59Ych-40" style="edgeStyle=orthogonalEdgeStyle;rounded=0;orthogonalLoop=1;jettySize=auto;html=1;exitX=1;exitY=0.5;exitDx=0;exitDy=0;" edge="1" parent="1" source="08SMgyBRt8ykKjq59Ych-9">
          <mxGeometry relative="1" as="geometry">
            <mxPoint x="520" y="900" as="targetPoint" />
            <Array as="points">
              <mxPoint x="520" y="890" />
              <mxPoint x="520" y="890" />
            </Array>
          </mxGeometry>
        </mxCell>
        <mxCell id="08SMgyBRt8ykKjq59Ych-9" value="" style="ellipse;whiteSpace=wrap;html=1;rotation=90;" vertex="1" parent="1">
          <mxGeometry x="297.5" y="570" width="445" height="170" as="geometry" />
        </mxCell>
        <mxCell id="08SMgyBRt8ykKjq59Ych-25" style="edgeStyle=orthogonalEdgeStyle;rounded=0;orthogonalLoop=1;jettySize=auto;html=1;exitX=0.5;exitY=1;exitDx=0;exitDy=0;entryX=0.5;entryY=0;entryDx=0;entryDy=0;" edge="1" parent="1" source="08SMgyBRt8ykKjq59Ych-10" target="08SMgyBRt8ykKjq59Ych-11">
          <mxGeometry relative="1" as="geometry" />
        </mxCell>
        <mxCell id="08SMgyBRt8ykKjq59Ych-10" value="entity extract" style="ellipse;whiteSpace=wrap;html=1;aspect=fixed;" vertex="1" parent="1">
          <mxGeometry x="480" y="450" width="80" height="80" as="geometry" />
        </mxCell>
        <mxCell id="08SMgyBRt8ykKjq59Ych-23" style="edgeStyle=orthogonalEdgeStyle;rounded=0;orthogonalLoop=1;jettySize=auto;html=1;exitX=0.5;exitY=1;exitDx=0;exitDy=0;entryX=0.5;entryY=0;entryDx=0;entryDy=0;" edge="1" parent="1" source="08SMgyBRt8ykKjq59Ych-11" target="08SMgyBRt8ykKjq59Ych-12">
          <mxGeometry relative="1" as="geometry" />
        </mxCell>
        <mxCell id="08SMgyBRt8ykKjq59Ych-11" value="data fetch" style="ellipse;whiteSpace=wrap;html=1;aspect=fixed;" vertex="1" parent="1">
          <mxGeometry x="480" y="550" width="80" height="80" as="geometry" />
        </mxCell>
        <mxCell id="08SMgyBRt8ykKjq59Ych-12" value="train" style="ellipse;whiteSpace=wrap;html=1;aspect=fixed;" vertex="1" parent="1">
          <mxGeometry x="480" y="650" width="80" height="80" as="geometry" />
        </mxCell>
        <mxCell id="08SMgyBRt8ykKjq59Ych-13" value="predict" style="ellipse;whiteSpace=wrap;html=1;aspect=fixed;" vertex="1" parent="1">
          <mxGeometry x="480" y="750" width="80" height="80" as="geometry" />
        </mxCell>
        <mxCell id="08SMgyBRt8ykKjq59Ych-54" style="edgeStyle=orthogonalEdgeStyle;rounded=0;orthogonalLoop=1;jettySize=auto;html=1;exitX=0.5;exitY=1;exitDx=0;exitDy=0;" edge="1" parent="1" source="08SMgyBRt8ykKjq59Ych-22">
          <mxGeometry relative="1" as="geometry">
            <mxPoint x="240" y="560" as="targetPoint" />
          </mxGeometry>
        </mxCell>
        <mxCell id="08SMgyBRt8ykKjq59Ych-22" value="llm evaluation of output. Is prediction or weather info needed?" style="ellipse;whiteSpace=wrap;html=1;" vertex="1" parent="1">
          <mxGeometry x="160" y="440" width="160" height="100" as="geometry" />
        </mxCell>
        <mxCell id="08SMgyBRt8ykKjq59Ych-27" style="edgeStyle=orthogonalEdgeStyle;rounded=0;orthogonalLoop=1;jettySize=auto;html=1;exitX=0.5;exitY=1;exitDx=0;exitDy=0;entryX=0.5;entryY=0;entryDx=0;entryDy=0;" edge="1" parent="1" source="08SMgyBRt8ykKjq59Ych-12" target="08SMgyBRt8ykKjq59Ych-13">
          <mxGeometry relative="1" as="geometry" />
        </mxCell>
        <mxCell id="08SMgyBRt8ykKjq59Ych-31" value="" style="endArrow=classic;html=1;rounded=0;exitX=1;exitY=0.5;exitDx=0;exitDy=0;entryX=0;entryY=0;entryDx=0;entryDy=0;dashed=1;" edge="1" parent="1" source="08SMgyBRt8ykKjq59Ych-1" target="08SMgyBRt8ykKjq59Ych-8">
          <mxGeometry width="50" height="50" relative="1" as="geometry">
            <mxPoint x="440" y="530" as="sourcePoint" />
            <mxPoint x="490" y="480" as="targetPoint" />
          </mxGeometry>
        </mxCell>
        <mxCell id="08SMgyBRt8ykKjq59Ych-32" value="" style="endArrow=classic;html=1;rounded=0;exitX=0;exitY=0.5;exitDx=0;exitDy=0;entryX=1;entryY=0;entryDx=0;entryDy=0;dashed=1;" edge="1" parent="1" source="08SMgyBRt8ykKjq59Ych-1" target="08SMgyBRt8ykKjq59Ych-5">
          <mxGeometry width="50" height="50" relative="1" as="geometry">
            <mxPoint x="440" y="530" as="sourcePoint" />
            <mxPoint x="490" y="480" as="targetPoint" />
          </mxGeometry>
        </mxCell>
        <mxCell id="08SMgyBRt8ykKjq59Ych-33" value="" style="endArrow=classic;html=1;rounded=0;exitX=0;exitY=1;exitDx=0;exitDy=0;entryX=0.65;entryY=0.013;entryDx=0;entryDy=0;entryPerimeter=0;dashed=1;" edge="1" parent="1" source="08SMgyBRt8ykKjq59Ych-1" target="08SMgyBRt8ykKjq59Ych-6">
          <mxGeometry width="50" height="50" relative="1" as="geometry">
            <mxPoint x="440" y="530" as="sourcePoint" />
            <mxPoint x="490" y="480" as="targetPoint" />
          </mxGeometry>
        </mxCell>
        <mxCell id="08SMgyBRt8ykKjq59Ych-34" value="" style="endArrow=classic;html=1;rounded=0;exitX=1;exitY=1;exitDx=0;exitDy=0;entryX=0.375;entryY=0;entryDx=0;entryDy=0;entryPerimeter=0;dashed=1;" edge="1" parent="1" source="08SMgyBRt8ykKjq59Ych-1" target="08SMgyBRt8ykKjq59Ych-7">
          <mxGeometry width="50" height="50" relative="1" as="geometry">
            <mxPoint x="440" y="530" as="sourcePoint" />
            <mxPoint x="490" y="480" as="targetPoint" />
          </mxGeometry>
        </mxCell>
        <mxCell id="08SMgyBRt8ykKjq59Ych-35" value="1" style="whiteSpace=wrap;html=1;aspect=fixed;" vertex="1" parent="1">
          <mxGeometry x="140" y="330" width="20" height="20" as="geometry" />
        </mxCell>
        <mxCell id="08SMgyBRt8ykKjq59Ych-36" value="2" style="whiteSpace=wrap;html=1;aspect=fixed;" vertex="1" parent="1">
          <mxGeometry x="320" y="330" width="20" height="20" as="geometry" />
        </mxCell>
        <mxCell id="08SMgyBRt8ykKjq59Ych-37" value="3" style="whiteSpace=wrap;html=1;aspect=fixed;" vertex="1" parent="1">
          <mxGeometry x="510" y="330" width="20" height="20" as="geometry" />
        </mxCell>
        <mxCell id="08SMgyBRt8ykKjq59Ych-38" value="4" style="whiteSpace=wrap;html=1;aspect=fixed;" vertex="1" parent="1">
          <mxGeometry x="710" y="330" width="20" height="20" as="geometry" />
        </mxCell>
        <mxCell id="08SMgyBRt8ykKjq59Ych-43" style="edgeStyle=orthogonalEdgeStyle;rounded=0;orthogonalLoop=1;jettySize=auto;html=1;exitX=0.5;exitY=1;exitDx=0;exitDy=0;entryX=0.5;entryY=0;entryDx=0;entryDy=0;" edge="1" parent="1" source="08SMgyBRt8ykKjq59Ych-41" target="08SMgyBRt8ykKjq59Ych-42">
          <mxGeometry relative="1" as="geometry" />
        </mxCell>
        <mxCell id="08SMgyBRt8ykKjq59Ych-41" value="Node 2 &amp;amp; 1 sequential calling" style="ellipse;whiteSpace=wrap;html=1;aspect=fixed;" vertex="1" parent="1">
          <mxGeometry x="480" y="900" width="80" height="80" as="geometry" />
        </mxCell>
        <mxCell id="08SMgyBRt8ykKjq59Ych-42" value="END" style="ellipse;whiteSpace=wrap;html=1;aspect=fixed;" vertex="1" parent="1">
          <mxGeometry x="495" y="1000" width="50" height="50" as="geometry" />
        </mxCell>
        <mxCell id="08SMgyBRt8ykKjq59Ych-50" value="5" style="whiteSpace=wrap;html=1;aspect=fixed;" vertex="1" parent="1">
          <mxGeometry x="230" y="450" width="20" height="20" as="geometry" />
        </mxCell>
        <mxCell id="08SMgyBRt8ykKjq59Ych-53" value="" style="endArrow=classic;html=1;rounded=0;exitX=1;exitY=0.5;exitDx=0;exitDy=0;entryX=0;entryY=0.5;entryDx=0;entryDy=0;dashed=1;" edge="1" parent="1" source="08SMgyBRt8ykKjq59Ych-22" target="08SMgyBRt8ykKjq59Ych-8">
          <mxGeometry width="50" height="50" relative="1" as="geometry">
            <mxPoint x="420" y="530" as="sourcePoint" />
            <mxPoint x="470" y="480" as="targetPoint" />
          </mxGeometry>
        </mxCell>
        <mxCell id="08SMgyBRt8ykKjq59Ych-55" value="END" style="ellipse;whiteSpace=wrap;html=1;aspect=fixed;" vertex="1" parent="1">
          <mxGeometry x="215" y="560" width="50" height="50" as="geometry" />
        </mxCell>
        <mxCell id="08SMgyBRt8ykKjq59Ych-57" value="END" style="ellipse;whiteSpace=wrap;html=1;aspect=fixed;" vertex="1" parent="1">
          <mxGeometry x="695" y="430" width="50" height="50" as="geometry" />
        </mxCell>
      </root>
    </mxGraphModel>
  </diagram>
</mxfile>
